<?xml version="1.0" encoding="utf-8"?>
<!-- Generator: Adobe Illustrator 16.0.0, SVG Export Plug-In . SVG Version: 6.00 Build 0)  -->
<!DOCTYPE svg PUBLIC "-//W3C//DTD SVG 1.1//EN" "http://www.w3.org/Graphics/SVG/1.1/DTD/svg11.dtd">
<svg version="1.1" id="Layer_1" xmlns="http://www.w3.org/2000/svg" xmlns:xlink="http://www.w3.org/1999/xlink" x="0px" y="0px"
	 width="512px" height="512px" viewBox="0 0 512 512" enable-background="new 0 0 512 512" xml:space="preserve">
<g>
	<rect x="277" y="179.2" fill="#B0CCE2" width="74.7" height="43.9"/>
	<rect x="277" y="178.4" fill="#46729E" width="74.7" height="6.1"/>
	<g>
		<g>
			<path fill="#46729E" d="M344.2,194h-30.4c-0.9,0-1.5-0.7-1.5-1.5c0-0.9,0.7-1.5,1.5-1.5h30.4c0.9,0,1.5,0.7,1.5,1.5
				C345.7,193.3,345,194,344.2,194z"/>
		</g>
		<g>
			<path fill="#46729E" d="M344.2,205.6h-30.4c-0.9,0-1.5-0.7-1.5-1.5c0-0.9,0.7-1.5,1.5-1.5h30.4c0.9,0,1.5,0.7,1.5,1.5
				C345.7,204.9,345,205.6,344.2,205.6z"/>
		</g>
		<g>
			<path fill="#46729E" d="M344.2,217.2h-30.4c-0.9,0-1.5-0.7-1.5-1.5c0-0.9,0.7-1.5,1.5-1.5h30.4c0.9,0,1.5,0.7,1.5,1.5
				C345.7,216.5,345,217.2,344.2,217.2z"/>
		</g>
	</g>
	<rect x="282.8" y="189.3" fill="#46729E" width="22.8" height="29"/>
</g>
<g>
	<g>
		<g>
			<g>
				<g>
					<g>
						<g>
							<g>
								<g>
									<g>
										<path fill="#F47C2C" d="M504.1,256C504.1,119,393,7.9,256,7.9C119,7.9,7.9,119,7.9,256C7.9,393,119,504.1,256,504.1
											C393,504.1,504.1,393,504.1,256z"/>
									</g>
								</g>
							</g>
						</g>
					</g>
				</g>
			</g>
		</g>
	</g>
	<g>
		<g>
			<g>
				<path fill="#D4D6D8" d="M256,504.1c70.2,0,133.6-29.2,178.7-76c-2.8-15.1-5.6-28.9-8.3-37.4c-8.5-27.3-81.2-49.3-170.8-49.3
					S94.1,363.4,85.6,390.7c-2.6,8.5-5.5,22.2-8.3,37.4C122.4,474.9,185.8,504.1,256,504.1z"/>
			</g>
		</g>
	</g>
	<path fill="#D4D6D8" d="M256.1,451.3c19.6,0,41.7-108,41.7-108l-42.2,26.7l-41.5-26.7C214.2,343.3,236.5,451.3,256.1,451.3z"/>
	<g>
		<polygon fill="#D4D6D8" points="218.1,343.3 255.7,371.4 293.9,343.3 295.8,330.2 255.8,324.9 216.2,330.2 		"/>
	</g>
	<path fill="#E2A379" d="M294.9,290h-77.8c12.1,36.6,1,53.3,1,53.3l26.9,6.1h22l26.9-6.1C293.9,343.3,282.8,326.6,294.9,290z"/>
	<g>
		<polygon fill="#F3FAFF" points="290,366.7 295.8,330.2 313.7,345.7 		"/>
	</g>
	<g>
		<polygon fill="#F3FAFF" points="222,366.7 216.2,330.2 198.3,345.7 		"/>
	</g>
	<path fill="#F3FAFF" d="M313.7,345.7l-17.9-15.5L256,349.4c0,0,34,17.3,34.2,17.1L313.7,345.7z"/>
	<path fill="#F3FAFF" d="M198.3,345.7l17.9-15.5l39.8,19.2c0,0-34,17.3-34.2,17.1L198.3,345.7z"/>
	<polygon fill="#4A4A54" points="256,349.4 240.2,357.3 256,382.9 271.7,357.3 	"/>
	<g>
		<path fill="#4A4A54" d="M259.5,369.8H256l0,0.7v-0.7h-3.5c0,0-13.4,15.9-15.4,38.5c-2,22-5,70.2-6,94.5c8.2,0.8,16.5,1.2,24.9,1.2
			c8.4,0,16.7-0.4,24.9-1.2c-1-24.3-4-72.4-6-94.5C272.9,385.7,259.5,369.8,259.5,369.8z"/>
	</g>
	<g>
		<g>
			<g>
				<g>
					<g>
						<g>
							<g>
								<g>
									<g>
										<path fill="#F4B382" d="M344.3,183.1c0-92.4-39.5-113.6-88.3-113.6c-48.7,0-88.3,21.2-88.3,113.6
											c0,31.3,6.2,55.8,15.5,74.7c20.4,41.6,55.7,56.1,72.8,56.1s52.4-14.5,72.8-56.1C338.1,238.9,344.3,214.4,344.3,183.1z"/>
									</g>
								</g>
							</g>
						</g>
					</g>
				</g>
			</g>
		</g>
	</g>
	<g>
		<path fill="#E5A173" d="M280.7,269.1c0,2.4-11,8.8-24.7,8.8s-24.7-6.5-24.7-8.8c0-1.5,7.8-5.6,13.1-6.4c3.3-0.5,11.6,2.7,11.6,2.7
			s8.2-3.1,11.4-2.7C272.8,263.4,280.7,269.1,280.7,269.1z"/>
		<path fill="#D89364" d="M280.7,269.1c0,2.4-11,11.5-24.7,11.5s-24.7-9.1-24.7-11.5c0,0,10,1.2,24.7,1.2S280.7,269.1,280.7,269.1z"
			/>
	</g>
	<path fill="#3A3431" d="M211.9,128.6c0,0,7.3,39.9,35.7,45.3c0,0-9.5-28.4-8.7-39.2c0,0,30.6,14.2,40.1,42.6c0,0,3.6-15.5-1.5-39.2
		c0,0,15.3,8.1,13.8,35.1c0,0,11.7-4.7,12.4-20.3c0,0,9.5,14.9,5.1,30.4c0,0,2.2,3.4,6.6-4.1c0,0,17.7,8.7,16.7,37.1
		c0,0,18.5-23.4,12.8-47.3c0,0,5.2,12.8,4.5,21.6c0,0,4.7-19.6-0.4-42.6c0,0,6.6,5.4,8.7,12.8c0,0,8-15.5-12.4-29
		c0,0,10.2-2,11.7,2.7c0,0-5.1-25-20.4-31.7c0,0,6.6-2,15.3,6.8c0,0-3.6-18.9-25.5-25c0,0,4.4-2,11.7,1.4c0,0-5.8-12.2-24-16.2
		c0,0-1.5-6.1,6.6-5.4c0,0-16-7.4-31.3-8.1c0,0,5.1-10.8,13.8-10.8c0,0-21.1-6.1-35.7,2c0,0-8-3.4-2.9-6.1c0,0-39.3-1.4-41.5,19.6
		c0,0-10.9-0.7-20.4-5.4c0,0-9.5,6.8-0.7,14.9c0,0-22.6,0.7-32.8,16.9c0,0,5.1-2,11.7-1.4c0,0-17.5,8.8-19.7,23.6
		c0,0,5.1-2,10.9-1.4c0,0-10.2,6.1-14.6,18.2c0,0,4.4-1.4,10.9-2c0,0-22.6,17.6-22.6,42.6c0,0,8.7-13.5,13.8-13.5
		c0,0-2.9,21.6,2.9,45.9c0,0,3.6-11.5,7.3-10.8c0,0-0.7,18.9,10.9,31.7c0,0,0-43.9,8-44.6c0,0,4.4,6.1,9.5,10.1
		C198.1,186.1,188.6,132.7,211.9,128.6z"/>
	<path fill="#F4B382" d="M178.3,246.6c-8.4,1.4-14.4,0.1-19.1-27.7s1.7-31.5,10.1-32.9L178.3,246.6z"/>
	<path fill="#F4B382" d="M333.8,246.6c8.4,1.4,14.3,0.1,19.1-27.7c4.8-27.8-1.7-31.5-10.1-32.9L333.8,246.6z"/>
</g>
</svg>
