<?xml version="1.0" encoding="utf-8"?>
<!-- Generator: Adobe Illustrator 16.0.0, SVG Export Plug-In . SVG Version: 6.00 Build 0)  -->
<!DOCTYPE svg PUBLIC "-//W3C//DTD SVG 1.1//EN" "http://www.w3.org/Graphics/SVG/1.1/DTD/svg11.dtd">
<svg version="1.1" id="Layer_1" xmlns="http://www.w3.org/2000/svg" xmlns:xlink="http://www.w3.org/1999/xlink" x="0px" y="0px"
	 width="512px" height="512px" viewBox="0 0 512 512" enable-background="new 0 0 512 512" xml:space="preserve">
<g>
	<g>
		<g>
			<g>
				<g>
					<g>
						<g>
							<path fill="#E04F5F" d="M504.1,256C504.1,119,393,7.9,256,7.9C119,7.9,7.9,119,7.9,256C7.9,393,119,504.1,256,504.1
								C393,504.1,504.1,393,504.1,256z"/>
						</g>
					</g>
				</g>
			</g>
		</g>
	</g>
	<g>
		<g>
			<path fill="#FFFFFF" d="M400.5,234H175c-5.5,0-10,4.5-10,10v24c0,5.5,4.5,10,10,10h225.5c5.5,0,10-4.5,10-10v-24
				C410.5,238.5,406,234,400.5,234z"/>
			<path fill="#FFFFFF" d="M135.5,234h-24c-5.5,0-10,4.5-10,10v24c0,5.5,4.5,10,10,10h24c5.5,0,10-4.5,10-10v-24
				C145.5,238.5,141,234,135.5,234z"/>
		</g>
		<g>
			<path fill="#FFFFFF" d="M400.5,165H175c-5.5,0-10,4.5-10,10v24c0,5.5,4.5,10,10,10h225.5c5.5,0,10-4.5,10-10v-24
				C410.5,169.5,406,165,400.5,165z"/>
			<path fill="#FFFFFF" d="M135.5,165h-24c-5.5,0-10,4.5-10,10v24c0,5.5,4.5,10,10,10h24c5.5,0,10-4.5,10-10v-24
				C145.5,169.5,141,165,135.5,165z"/>
		</g>
		<g>
			<path fill="#FFFFFF" d="M400.5,303H175c-5.5,0-10,4.5-10,10v24c0,5.5,4.5,10,10,10h225.5c5.5,0,10-4.5,10-10v-24
				C410.5,307.5,406,303,400.5,303z"/>
			<path fill="#FFFFFF" d="M135.5,303h-24c-5.5,0-10,4.5-10,10v24c0,5.5,4.5,10,10,10h24c5.5,0,10-4.5,10-10v-24
				C145.5,307.5,141,303,135.5,303z"/>
		</g>
	</g>
</g>
</svg>
